<?xml version="1.0" encoding="UTF-8" standalone="no"?>
<!DOCTYPE svg PUBLIC "-//W3C//DTD SVG 1.1//EN" "http://www.w3.org/Graphics/SVG/1.1/DTD/svg11.dtd">
<svg version="1.1" xmlns="http://www.w3.org/2000/svg" xmlns:xlink="http://www.w3.org/1999/xlink" preserveAspectRatio="xMidYMid meet" viewBox="68.37356321839076 97.10919540229892 492.90804597701157 349.22988505747117" width="36" height="25.31"><defs><path d="M506.9 228.05C517.94 228.05 526.9 237 526.9 248.05C526.9 274.62 526.9 334.34 526.9 360.92C526.9 371.97 517.94 380.92 506.9 380.92C426.07 380.92 203.59 380.92 122.76 380.92C111.71 380.92 102.76 371.97 102.76 360.92C102.76 334.34 102.76 274.62 102.76 248.05C102.76 237 111.71 228.05 122.76 228.05C203.59 228.05 426.07 228.05 506.9 228.05Z" id="eaTt70KzBt"></path><path d="M530.68 366.13C537.48 366.13 542.99 371.64 542.99 378.43C542.99 381.49 542.99 378.35 542.99 381.41C542.99 388.2 537.48 393.71 530.68 393.71C441.88 393.71 187.78 393.71 98.97 393.71C92.18 393.71 86.67 388.2 86.67 381.41C86.67 378.35 86.67 381.49 86.67 378.43C86.67 371.64 92.18 366.13 98.97 366.13C187.78 366.13 441.88 366.13 530.68 366.13Z" id="ab28qJPUz"></path><path d="M506.22 293.02C512.24 293.02 517.13 297.9 517.13 303.93C517.13 315.35 517.13 338.7 517.13 350.12C517.13 356.15 512.24 361.03 506.22 361.03C427.48 361.03 202.18 361.03 123.44 361.03C117.41 361.03 112.53 356.15 112.53 350.12C112.53 338.7 112.53 315.35 112.53 303.93C112.53 297.9 117.41 293.02 123.44 293.02C202.18 293.02 427.48 293.02 506.22 293.02Z" id="axC8DUuHy"></path><path d="M210.8 432.64C213.34 432.64 215.4 434.7 215.4 437.24C215.4 438.16 215.4 436.32 215.4 437.24C215.4 439.78 213.34 441.84 210.8 441.84C198.16 441.84 164.83 441.84 152.18 441.84C149.64 441.84 147.59 439.78 147.59 437.24C147.59 436.32 147.59 438.16 147.59 437.24C147.59 434.7 149.64 432.64 152.18 432.64C164.83 432.64 198.16 432.64 210.8 432.64Z" id="e59IqIYjx8"></path><path d="M471.03 432.64C473.57 432.64 475.63 434.7 475.63 437.24C475.63 438.16 475.63 436.32 475.63 437.24C475.63 439.78 473.57 441.84 471.03 441.84C458.39 441.84 425.06 441.84 412.41 441.84C409.87 441.84 407.82 439.78 407.82 437.24C407.82 436.32 407.82 438.16 407.82 437.24C407.82 434.7 409.87 432.64 412.41 432.64C425.06 432.64 458.39 432.64 471.03 432.64Z" id="am160AkHA"></path><path d="M344.14 432.64C346.68 432.64 348.74 434.7 348.74 437.24C348.74 438.16 348.74 436.32 348.74 437.24C348.74 439.78 346.68 441.84 344.14 441.84C331.49 441.84 298.16 441.84 285.52 441.84C282.98 441.84 280.92 439.78 280.92 437.24C280.92 436.32 280.92 438.16 280.92 437.24C280.92 434.7 282.98 432.64 285.52 432.64C298.16 432.64 331.49 432.64 344.14 432.64Z" id="aoxp1nUy1"></path><path d="M176.32 342.41C176.32 339.56 178.64 337.24 181.49 337.24C182.53 337.24 180.46 337.24 181.49 337.24C184.35 337.24 186.67 339.56 186.67 342.41C186.67 361.38 186.67 413.1 186.67 432.07C186.67 434.93 184.35 437.24 181.49 437.24C180.46 437.24 182.53 437.24 181.49 437.24C178.64 437.24 176.32 434.93 176.32 432.07C176.32 413.1 176.32 361.38 176.32 342.41Z" id="c5Ksw4NGEt"></path><path d="M309.66 342.41C309.66 339.56 311.97 337.24 314.83 337.24C315.86 337.24 313.79 337.24 314.83 337.24C317.68 337.24 320 339.56 320 342.41C320 361.38 320 413.1 320 432.07C320 434.93 317.68 437.24 314.83 437.24C313.79 437.24 315.86 437.24 314.83 437.24C311.97 437.24 309.66 434.93 309.66 432.07C309.66 413.1 309.66 361.38 309.66 342.41Z" id="j3HlFUj4Jq"></path><path d="M436.55 342.41C436.55 339.56 438.87 337.24 441.72 337.24C442.76 337.24 440.69 337.24 441.72 337.24C444.58 337.24 446.9 339.56 446.9 342.41C446.9 361.38 446.9 413.1 446.9 432.07C446.9 434.93 444.58 437.24 441.72 437.24C440.69 437.24 442.76 437.24 441.72 437.24C438.87 437.24 436.55 434.93 436.55 432.07C436.55 413.1 436.55 361.38 436.55 342.41Z" id="b2y82IlI9u"></path><path d="M549.37 329.83C553.47 329.83 556.78 333.15 556.78 337.24C556.78 338.72 556.78 335.76 556.78 337.24C556.78 341.33 553.47 344.65 549.37 344.65C454.07 344.65 175.58 344.65 80.28 344.65C76.19 344.65 72.87 341.33 72.87 337.24C72.87 335.76 72.87 338.72 72.87 337.24C72.87 333.15 76.19 329.83 80.28 329.83C175.58 329.83 454.07 329.83 549.37 329.83Z" id="aOWZh3Cdu"></path><path d="M144.69 297.01L76.87 337.24" id="cNRgXbVOV"></path><path d="M483.22 297.01L551.03 337.24" id="c1KpDwKbZc"></path><path d="M357.93 207.93C364.6 207.93 370 213.33 370 220C370 222.41 370 217.59 370 220C370 226.67 364.6 232.07 357.93 232.07C338.28 232.07 291.38 232.07 271.72 232.07C265.06 232.07 259.66 226.67 259.66 220C259.66 217.59 259.66 222.41 259.66 220C259.66 213.33 265.06 207.93 271.72 207.93C291.38 207.93 338.28 207.93 357.93 207.93Z" id="i1lVIftSQG"></path><path d="M367.77 190.24C371.86 190.24 375.17 193.56 375.17 197.65C375.17 199.13 375.17 196.17 375.17 197.65C375.17 201.74 371.86 205.06 367.77 205.06C354.53 205.06 322.25 205.06 309.02 205.06C304.93 205.06 301.61 201.74 301.61 197.65C301.61 196.17 301.61 199.13 301.61 197.65C301.61 193.56 304.93 190.24 309.02 190.24C322.25 190.24 354.53 190.24 367.77 190.24Z" id="c2Iqh1hny"></path><path d="" id="a7YHvHKAWY"></path><path d="M360.23 109.08C360.23 104.95 363.57 101.61 367.7 101.61C369.2 101.61 366.21 101.61 367.7 101.61C371.83 101.61 375.17 104.95 375.17 109.08C375.17 128.28 375.17 178.39 375.17 197.59C375.17 201.71 371.83 205.06 367.7 205.06C366.21 205.06 369.2 205.06 367.7 205.06C363.57 205.06 360.23 201.71 360.23 197.59C360.23 178.39 360.23 128.28 360.23 109.08Z" id="c1XgPOMdZS"></path><path d="M367.77 101.61C371.86 101.61 375.17 104.93 375.17 109.02C375.17 110.5 375.17 107.53 375.17 109.02C375.17 113.11 371.86 116.42 367.77 116.42C354.53 116.42 322.25 116.42 309.02 116.42C304.93 116.42 301.61 113.11 301.61 109.02C301.61 107.53 301.61 110.5 301.61 109.02C301.61 104.93 304.93 101.61 309.02 101.61C322.25 101.61 354.53 101.61 367.77 101.61Z" id="cjMyv46r2"></path></defs><g><g><use xlink:href="#eaTt70KzBt" opacity="1" fill="#9998a1" fill-opacity="0"></use><g><use xlink:href="#eaTt70KzBt" opacity="1" fill-opacity="0" stroke="#000000" stroke-width="12" stroke-opacity="1"></use></g></g><g><use xlink:href="#ab28qJPUz" opacity="1" fill="#000000" fill-opacity="1"></use></g><g><use xlink:href="#axC8DUuHy" opacity="1" fill="#000000" fill-opacity="1"></use><g><use xlink:href="#axC8DUuHy" opacity="1" fill-opacity="0" stroke="#000000" stroke-width="0" stroke-opacity="1"></use></g></g><g><use xlink:href="#e59IqIYjx8" opacity="1" fill="#201d3b" fill-opacity="1"></use></g><g><use xlink:href="#am160AkHA" opacity="1" fill="#201d3b" fill-opacity="1"></use></g><g><use xlink:href="#aoxp1nUy1" opacity="1" fill="#201d3b" fill-opacity="1"></use></g><g><use xlink:href="#c5Ksw4NGEt" opacity="1" fill="#201d3b" fill-opacity="1"></use></g><g><use xlink:href="#j3HlFUj4Jq" opacity="1" fill="#201d3b" fill-opacity="1"></use></g><g><use xlink:href="#b2y82IlI9u" opacity="1" fill="#201d3b" fill-opacity="1"></use></g><g><use xlink:href="#aOWZh3Cdu" opacity="1" fill="#201d3b" fill-opacity="1"></use></g><g><g><use xlink:href="#cNRgXbVOV" opacity="1" fill-opacity="0" stroke="#000000" stroke-width="9" stroke-opacity="1"></use></g></g><g><g><use xlink:href="#c1KpDwKbZc" opacity="1" fill-opacity="0" stroke="#000000" stroke-width="9" stroke-opacity="1"></use></g></g><g><use xlink:href="#i1lVIftSQG" opacity="1" fill="#201d3b" fill-opacity="1"></use></g><g><use xlink:href="#c2Iqh1hny" opacity="1" fill="#201d3b" fill-opacity="1"></use></g><g><g><use xlink:href="#a7YHvHKAWY" opacity="1" fill-opacity="0" stroke="#000000" stroke-width="9" stroke-opacity="1"></use></g></g><g><use xlink:href="#c1XgPOMdZS" opacity="1" fill="#201d3b" fill-opacity="1"></use></g><g><use xlink:href="#cjMyv46r2" opacity="1" fill="#201d3b" fill-opacity="1"></use></g></g></svg>