<?xml version="1.0" encoding="UTF-8" standalone="no"?>
<!DOCTYPE svg PUBLIC "-//W3C//DTD SVG 1.1//EN" "http://www.w3.org/Graphics/SVG/1.1/DTD/svg11.dtd">
<svg version="1.1" xmlns="http://www.w3.org/2000/svg" xmlns:xlink="http://www.w3.org/1999/xlink" preserveAspectRatio="xMidYMid meet" viewBox="57.1081081081081 143.5382788170846 377.832401366884 289.23183612544426" width="48" height="36.63"><defs><path d="M320 429.77L198.17 176.9L76.34 429.77L320 429.77Z" id="d3clnqyjr"></path><path d="M382.5 429.77L248.62 144.54L104.73 429.77L382.5 429.77Z" id="au97ZFLIE"></path><path d="M420.15 429.77L296.84 197.57L190.53 429.77L420.15 429.77Z" id="cx0SdoFtO"></path><path d="M277.5 269.92C277.5 282.76 243.02 293.18 200.54 293.18C158.07 293.18 123.58 282.76 123.58 269.92C123.58 257.09 158.07 246.66 200.54 246.66C243.02 246.66 277.5 257.09 277.5 269.92Z" id="ac6Ik5uKd"></path><path d="M216.62 290.41C216.62 303.25 181.11 313.67 137.36 313.67C93.62 313.67 58.11 303.25 58.11 290.41C58.11 277.57 93.62 267.15 137.36 267.15C181.11 267.15 216.62 277.57 216.62 290.41Z" id="j6GosKBHy"></path><path d="M431.94 429.77L351.34 260.43L281.85 429.77L431.94 429.77Z" id="a1UJjUb7az"></path><path d="M325.63 288.49C325.63 297.21 285.74 304.29 236.6 304.29C187.46 304.29 147.57 297.21 147.57 288.49C147.57 279.78 187.46 272.7 236.6 272.7C285.74 272.7 325.63 279.78 325.63 288.49Z" id="cm3rH8fT5"></path><path d="M283.65 429.03L216.9 303.33L159.35 429.03L283.65 429.03Z" id="irp0tI76"></path></defs><g><g><use xlink:href="#d3clnqyjr" opacity="1" fill="#787878" fill-opacity="1"></use><g><use xlink:href="#d3clnqyjr" opacity="1" fill-opacity="0" stroke="#000000" stroke-width="0" stroke-opacity="1"></use></g></g><g><use xlink:href="#au97ZFLIE" opacity="1" fill="#959595" fill-opacity="1"></use><g><use xlink:href="#au97ZFLIE" opacity="1" fill-opacity="0" stroke="#000000" stroke-width="0" stroke-opacity="1"></use></g></g><g><use xlink:href="#cx0SdoFtO" opacity="1" fill="#a5a5a5" fill-opacity="1"></use></g><g><use xlink:href="#ac6Ik5uKd" opacity="1" fill="#ffffff" fill-opacity="1"></use></g><g><use xlink:href="#j6GosKBHy" opacity="1" fill="#ffffff" fill-opacity="1"></use><g><use xlink:href="#j6GosKBHy" opacity="1" fill-opacity="0" stroke="#6c5858" stroke-width="0" stroke-opacity="1"></use></g></g><g><use xlink:href="#a1UJjUb7az" opacity="1" fill="#a5a5a5" fill-opacity="1"></use><g><use xlink:href="#a1UJjUb7az" opacity="1" fill-opacity="0" stroke="#000000" stroke-width="0" stroke-opacity="1"></use></g></g><g><use xlink:href="#cm3rH8fT5" opacity="1" fill="#ffffff" fill-opacity="1"></use></g><g><use xlink:href="#irp0tI76" opacity="1" fill="#a5a5a5" fill-opacity="1"></use><g><use xlink:href="#irp0tI76" opacity="1" fill-opacity="0" stroke="#000000" stroke-width="0" stroke-opacity="1"></use></g></g></g></svg>